{"glyphs":{"0":{"ha":906,"x_min":67,"x_max":831,"o":"m 456 1225 l 543 1225 q 831 821 831 1142 q 427 216 753 216 l 341 216 q 67 547 139 216 q 269 1152 67 829 q 456 1225 385 1225 m 298 907 l 312 879 l 312 778 q 399 360 312 360 l 441 360 q 730 850 656 360 l 730 864 q 543 1095 730 969 l 528 1095 q 298 907 402 1095 z "},"1":{"ha":906,"x_min":165,"x_max":742,"o":"m 482 1196 q 627 1008 627 1163 l 627 979 q 583 274 627 691 q 742 216 742 248 l 742 187 q 367 86 742 130 q 194 173 194 124 l 194 201 q 237 245 194 222 l 338 245 l 410 259 l 410 404 q 439 979 410 498 q 223 807 260 807 q 165 893 165 821 q 454 1196 165 1031 l 482 1196 z "},"2":{"ha":906,"x_min":64,"x_max":856,"o":"m 438 1196 q 726 937 636 1196 l 726 907 q 467 389 698 690 l 755 389 q 856 288 856 389 q 553 187 856 187 q 179 173 279 173 q 107 274 107 193 q 265 475 107 337 q 553 937 553 772 l 467 1008 l 424 1008 q 107 821 321 1008 l 64 821 l 64 893 q 438 1196 64 1147 z "},"3":{"ha":906,"x_min":17,"x_max":867,"o":"m 463 1253 q 709 1109 612 1253 l 709 1080 q 622 907 709 1016 l 622 879 q 867 605 867 789 q 363 187 867 324 l 334 187 q 75 360 75 213 l 75 404 q 161 461 103 461 q 449 418 309 432 q 709 634 709 512 q 550 706 709 684 q 305 692 502 706 q 262 792 262 744 q 550 1023 262 821 q 564 1066 564 1050 l 507 1066 q 103 893 304 1066 l 60 893 q 17 937 39 893 l 17 1023 q 463 1253 215 1253 z "},"4":{"ha":906,"x_min":41,"x_max":891,"o":"m 503 1181 q 545 1167 530 1167 l 545 1138 q 358 749 545 1109 q 272 490 272 530 l 473 490 l 473 504 q 545 720 488 720 l 603 720 q 661 576 643 720 l 661 504 q 891 432 879 485 l 891 374 q 632 274 891 314 q 517 14 624 14 q 431 144 431 14 l 445 288 l 416 274 l 344 274 q 41 418 41 274 q 473 1181 123 759 l 503 1181 z "},"5":{"ha":906,"x_min":37,"x_max":901,"o":"m 526 1282 l 555 1282 q 728 1210 728 1282 q 281 1095 728 1139 q 210 1066 281 1066 l 210 994 l 195 922 q 210 907 210 922 q 382 937 309 937 l 454 937 q 872 706 804 937 l 901 591 q 382 201 901 317 l 281 201 q 51 418 51 259 q 138 504 80 504 q 411 432 318 432 q 728 634 697 432 q 526 764 696 764 l 426 764 q 166 706 339 764 q 37 850 37 706 l 37 1080 q 526 1282 37 1246 z "},"6":{"ha":906,"x_min":35,"x_max":899,"o":"m 596 1225 q 769 1138 719 1225 l 769 1095 q 711 1052 769 1052 q 625 1080 687 1052 q 294 734 452 1050 q 568 778 442 778 q 899 475 899 741 q 553 28 899 164 l 481 28 q 35 490 35 28 q 351 1109 35 819 q 596 1225 516 1225 m 236 418 q 424 245 236 282 q 654 446 654 288 l 654 475 q 524 533 635 533 q 236 446 446 533 l 236 418 z "},"7":{"ha":906,"x_min":-39,"x_max":868,"o":"m 810 1282 q 868 1181 868 1232 l 868 1167 q 350 201 555 201 l 321 201 q 263 302 263 225 q 580 922 294 505 l 623 1095 q 47 1008 269 1008 q -39 1066 -11 1008 l -39 1124 q 810 1282 -39 1175 z "},"8":{"ha":906,"x_min":142,"x_max":791,"o":"m 517 1253 q 791 1052 791 1219 q 604 821 791 941 l 604 749 q 733 432 733 576 q 503 173 692 173 l 416 173 q 142 432 142 224 q 258 734 142 588 q 171 951 171 860 l 171 965 q 517 1253 171 1216 m 445 1124 l 431 1052 l 431 1023 q 488 907 448 915 l 503 907 q 646 1037 633 1000 l 646 1052 q 503 1124 614 1124 l 445 1124 m 373 619 q 286 446 286 512 l 286 404 q 416 317 337 317 q 560 432 527 317 q 373 619 560 516 z "},"9":{"ha":906,"x_min":14,"x_max":850,"o":"m 346 1109 l 360 1109 q 792 893 723 1109 q 850 720 850 794 l 850 605 q 518 -86 850 246 l 490 -101 q 389 0 389 -101 q 576 360 389 28 l 576 374 l 547 374 q 404 332 547 332 l 360 332 q 14 663 14 436 l 14 706 q 346 1109 94 1109 m 231 706 l 231 663 q 360 547 231 564 q 605 677 605 581 q 389 907 565 907 l 389 922 q 231 706 271 922 z "}," ":{"ha":373,"x_min":0,"x_max":0,"o":""}," ":{"ha":373,"x_min":0,"x_max":0,"o":""},"!":{"ha":370,"x_min":54,"x_max":285,"o":"m 213 1239 l 241 1239 q 285 1124 285 1230 q 213 360 285 360 l 184 360 q 126 490 126 380 l 126 519 q 213 1239 142 1239 m 112 231 l 170 231 q 227 173 192 231 l 227 115 q 170 58 227 93 l 112 58 q 54 115 90 58 l 54 173 q 112 231 54 195 z "},"\"":{"ha":221,"x_min":-115,"x_max":332,"o":"m 245 1152 q 332 979 297 1152 q 245 821 315 821 q 159 1052 168 821 q 245 1152 168 1152 m -43 1124 l -14 1124 q 44 1023 44 1100 l 44 979 q -14 836 26 836 l -43 836 q -115 965 -115 872 q -43 1124 -92 1124 z "},"“":{"ha":221,"x_min":-115,"x_max":332,"o":"m 245 1152 q 332 979 297 1152 q 245 821 315 821 q 159 1052 168 821 q 245 1152 168 1152 m -43 1124 l -14 1124 q 44 1023 44 1100 l 44 979 q -14 836 26 836 l -43 836 q -115 965 -115 872 q -43 1124 -92 1124 z "},"”":{"ha":221,"x_min":-115,"x_max":332,"o":"m 245 1152 q 332 979 297 1152 q 245 821 315 821 q 159 1052 168 821 q 245 1152 168 1152 m -43 1124 l -14 1124 q 44 1023 44 1100 l 44 979 q -14 836 26 836 l -43 836 q -115 965 -115 872 q -43 1124 -92 1124 z "},"$":{"ha":848,"x_min":18,"x_max":810,"o":"m 378 1397 l 422 1397 q 494 1225 457 1397 q 739 1066 739 1191 l 739 1052 q 681 1008 739 1030 l 479 1095 l 465 1008 q 494 850 476 850 q 810 591 810 810 q 522 302 810 424 q 465 216 465 302 q 393 58 443 58 q 263 317 263 58 q 76 490 165 317 q 177 576 76 576 l 277 562 l 292 591 l 292 692 q 18 922 18 772 q 307 1210 18 1112 q 378 1397 331 1397 m 191 951 l 191 907 q 220 879 196 879 l 307 879 l 307 1066 q 191 951 263 1066 m 479 663 l 479 490 l 522 490 q 681 591 610 490 l 681 605 q 479 663 681 652 z "},"%":{"ha":1013,"x_min":15,"x_max":980,"o":"m 188 720 q 303 576 284 720 q 144 461 245 461 l 87 461 q 15 605 40 461 q 188 720 68 720 m 879 677 l 951 677 q 980 648 980 673 q 634 317 980 555 q 101 -14 260 14 q 73 14 73 -14 l 73 28 q 879 677 438 513 m 159 591 l 144 562 l 188 562 q 159 591 188 591 m 836 245 q 951 115 951 185 q 807 14 908 14 l 779 14 q 663 115 663 28 q 836 245 663 226 z "},"&":{"ha":914,"x_min":66,"x_max":888,"o":"m 456 1253 l 528 1253 q 743 1080 743 1229 l 743 1037 q 498 677 743 893 l 498 663 q 657 519 618 519 q 743 547 705 547 q 844 446 844 547 l 801 360 l 888 231 l 888 201 q 844 159 888 181 l 816 159 q 686 216 763 159 q 427 72 503 72 l 340 72 q 66 346 66 115 l 66 360 q 268 778 66 586 q 225 1037 225 970 q 456 1253 225 1214 m 383 1008 q 412 864 383 971 l 427 864 q 585 1066 585 991 q 498 1095 526 1095 q 383 1008 383 1063 m 340 576 q 254 404 254 496 l 254 302 q 326 274 290 302 q 498 374 395 274 q 340 576 389 551 z "},"'":{"ha":183,"x_min":34,"x_max":149,"o":"m 77 1124 l 135 1124 l 149 1052 l 149 922 l 120 821 q 34 864 68 821 l 48 1008 l 48 1095 q 77 1124 53 1124 z "},"‘":{"ha":183,"x_min":34,"x_max":149,"o":"m 77 1124 l 135 1124 l 149 1052 l 149 922 l 120 821 q 34 864 68 821 l 48 1008 l 48 1095 q 77 1124 53 1124 z "},"’":{"ha":183,"x_min":34,"x_max":149,"o":"m 77 1124 l 135 1124 l 149 1052 l 149 922 l 120 821 q 34 864 68 821 l 48 1008 l 48 1095 q 77 1124 53 1124 z "},"(":{"ha":378,"x_min":63,"x_max":351,"o":"m 279 1239 l 294 1181 q 178 648 178 988 q 351 144 178 515 l 351 130 l 322 115 q 63 792 113 115 q 207 1239 63 922 l 279 1239 z "},")":{"ha":380,"x_min":33,"x_max":292,"o":"m 77 1253 q 292 749 292 1146 l 292 591 q 134 115 230 115 l 119 115 q 91 159 91 115 q 163 677 163 533 l 163 734 q 33 1181 163 1018 l 33 1210 q 77 1253 33 1231 z "},"+":{"ha":772,"x_min":-13,"x_max":751,"o":"m 347 807 l 391 807 q 433 764 411 807 l 433 547 l 606 547 q 751 490 751 530 l 751 432 q 448 360 751 372 l 433 360 l 433 245 q 347 43 433 43 q 232 360 232 43 q -13 432 -13 374 l -13 475 q 261 547 -13 533 q 347 807 310 807 z "},",":{"ha":265,"x_min":11,"x_max":241,"o":"m 83 317 l 126 317 q 241 159 241 317 q 68 -101 198 -101 q 11 -43 11 -86 q 83 317 43 317 z "},"-":{"ha":557,"x_min":-18,"x_max":544,"o":"m 372 533 q 544 461 544 504 l 544 432 q 112 346 544 346 q -18 418 -18 346 q 372 533 -18 512 z "},".":{"ha":319,"x_min":8,"x_max":311,"o":"m 152 317 l 167 317 q 311 173 311 288 q 181 28 291 28 l 109 28 q 8 187 8 83 q 152 317 53 317 z "},":":{"ha":374,"x_min":39,"x_max":328,"o":"m 212 807 l 256 807 q 328 706 328 778 l 328 692 q 198 576 328 576 q 97 706 97 618 q 212 807 97 792 m 169 317 q 298 187 298 298 q 169 58 280 58 q 39 187 39 77 q 169 317 58 317 z "},";":{"ha":376,"x_min":16,"x_max":333,"o":"m 132 879 l 160 879 q 247 749 247 836 q 160 648 218 671 l 117 648 q 16 749 16 648 l 16 807 q 132 879 53 879 m 218 346 l 275 346 q 333 216 333 326 l 333 187 q 117 -86 333 1 q 74 -72 90 -72 l 74 -58 q 175 259 175 204 q 218 346 184 346 z "},"<":{"ha":515,"x_min":22,"x_max":497,"o":"m 425 749 l 439 749 q 468 720 468 745 q 165 418 468 639 l 151 389 l 151 374 q 497 101 497 202 l 439 86 q 22 346 77 237 l 22 404 q 310 663 22 519 q 425 749 310 673 z "},"=":{"ha":762,"x_min":29,"x_max":735,"o":"m 634 749 q 735 692 735 729 q 533 591 735 591 q 346 576 346 591 l 260 591 l 73 591 q 29 634 52 591 q 231 734 29 734 q 634 749 480 749 m 548 461 q 692 389 616 461 l 692 332 q 475 259 692 279 l 173 259 q 43 346 43 259 q 548 461 43 418 z "},">":{"ha":522,"x_min":42,"x_max":503,"o":"m 56 720 l 128 720 q 503 389 503 500 l 503 374 q 287 259 503 357 q 100 101 203 150 l 71 101 q 42 130 42 101 l 42 144 q 345 418 46 186 q 42 677 63 618 q 56 720 56 705 z "},"?":{"ha":639,"x_min":-53,"x_max":667,"o":"m 422 1210 q 667 965 667 1149 l 667 937 q 422 605 667 843 l 408 547 q 422 389 422 449 l 365 346 l 321 346 q 192 475 192 364 l 192 547 q 494 922 192 699 l 509 994 q 422 1037 494 1037 q 62 864 214 1037 l 5 864 q -53 965 -53 888 q 422 1210 62 1210 m 293 231 l 307 231 q 437 86 422 231 q 293 -28 398 -28 q 163 58 206 -28 l 163 101 q 293 231 182 231 z "},"@":{"ha":1331,"x_min":66,"x_max":1291,"o":"m 671 1138 l 714 1138 q 1276 821 1063 1138 l 1291 720 l 1291 706 q 1002 302 1251 302 q 758 475 899 302 q 555 374 675 374 l 541 374 q 368 533 368 414 l 368 562 q 700 836 368 754 l 714 836 q 873 677 873 790 l 858 619 q 987 475 882 534 q 1088 547 1078 505 l 1088 605 q 829 937 1088 778 q 714 951 750 951 q 282 576 399 951 q 267 490 267 500 q 642 201 267 267 q 959 288 950 288 l 987 288 q 1017 259 1017 283 l 1017 201 q 671 -58 1017 33 l 599 -58 q 123 245 368 -58 q 66 432 66 358 l 66 533 q 541 1124 66 928 q 671 1138 619 1138 m 498 504 l 512 504 q 671 677 671 608 q 627 692 643 692 q 498 504 555 692 z "},"A":{"ha":1171,"x_min":-5,"x_max":1105,"o":"m 614 1267 q 1032 432 764 1267 q 1105 -14 1105 152 q 989 -101 1075 -101 q 759 389 851 -101 l 745 389 q 327 404 488 404 l 298 404 q 139 72 258 372 q 53 28 102 28 l 39 28 q -5 86 17 28 q 528 1239 235 964 q 614 1267 576 1267 m 370 576 l 471 591 l 715 591 q 600 951 687 727 q 370 576 581 951 z "},"B":{"ha":1109,"x_min":119,"x_max":1041,"o":"m 509 1253 q 811 1080 811 1253 l 811 1008 q 724 792 811 918 q 1041 547 1041 696 l 1041 519 q 638 115 1041 285 q 393 72 522 72 l 321 72 q 220 -14 321 -14 q 119 245 128 -14 l 119 619 q 134 1066 119 800 l 119 1095 q 509 1253 119 1253 m 292 1080 l 307 979 l 307 792 q 652 979 454 792 l 681 1037 q 494 1109 681 1109 l 451 1109 q 292 1080 349 1109 m 307 562 q 364 302 307 302 l 451 288 q 869 533 869 335 q 609 619 791 619 l 566 619 q 307 562 307 619 z "},"C":{"ha":1160,"x_min":17,"x_max":1112,"o":"m 896 1152 q 996 1080 985 1123 l 996 1023 q 954 1008 981 1023 l 781 1037 q 276 734 409 941 q 190 490 190 619 q 564 245 190 288 q 1040 374 761 274 l 1069 374 q 1112 332 1089 374 l 1112 302 q 608 43 1112 111 l 578 43 q 45 332 184 43 l 17 432 q 176 850 98 850 q 896 1152 448 1152 z "},"D":{"ha":1309,"x_min":90,"x_max":1242,"o":"m 551 1196 l 580 1196 q 1242 807 1077 1196 l 1242 663 q 825 130 1242 380 q 479 58 622 58 l 378 58 q 148 288 148 130 l 90 1138 q 119 1167 119 1138 l 176 1152 q 551 1196 404 1196 m 249 994 l 349 302 l 349 259 l 450 259 q 1069 764 1069 259 q 840 1023 1004 947 q 609 1052 711 1052 q 249 994 249 1040 z "},"E":{"ha":937,"x_min":58,"x_max":922,"o":"m 793 1037 q 922 979 922 1013 l 922 937 q 347 821 922 864 q 303 836 319 836 l 303 821 q 289 562 289 588 q 677 619 624 619 q 836 562 836 602 l 836 533 q 433 374 673 374 l 303 374 q 275 346 275 370 q 332 115 275 115 q 836 28 836 72 l 850 0 q 534 -159 850 -159 q 58 159 58 -159 q 217 979 151 979 l 260 979 l 303 951 q 793 1037 717 1037 z "},"F":{"ha":1044,"x_min":103,"x_max":1155,"o":"m 304 1210 l 348 1210 q 521 1196 476 1210 q 737 1210 646 1210 l 924 1210 q 1155 1095 1155 1210 q 549 1008 1155 1023 l 348 1037 l 348 836 l 334 663 q 622 692 477 692 l 680 692 q 895 619 895 672 l 895 605 q 334 475 895 522 l 334 389 q 233 -58 334 18 l 175 -58 q 132 28 132 -43 l 132 173 q 103 591 132 450 q 247 1196 103 1196 q 304 1210 273 1210 z "},"G":{"ha":1198,"x_min":31,"x_max":1125,"o":"m 679 1253 q 909 1138 833 1253 l 909 1095 q 592 979 909 1059 q 290 533 290 827 l 290 389 q 564 159 290 159 q 952 490 952 228 l 952 547 q 607 475 805 504 q 549 519 549 497 l 549 562 q 1025 706 549 619 q 1125 605 1125 685 q 707 28 1125 227 q 506 0 644 0 q 45 504 183 0 q 31 605 45 548 q 218 1023 83 865 q 679 1253 433 1230 z "},"H":{"ha":1293,"x_min":96,"x_max":1219,"o":"m 1090 1253 l 1147 1253 q 1219 1109 1219 1221 l 1219 1095 q 1104 259 1219 1025 q 960 72 1063 72 q 888 216 888 72 q 903 519 903 469 q 513 504 636 504 l 427 504 l 355 490 q 370 231 370 289 q 283 115 370 145 q 139 374 188 115 q 96 778 96 558 l 96 1008 q 197 1124 96 1124 q 326 893 326 1043 l 326 734 q 859 706 374 720 l 859 692 q 931 720 906 720 q 1090 1253 975 1200 z "},"I":{"ha":732,"x_min":-1,"x_max":705,"o":"m 460 1225 q 532 1181 532 1214 l 532 1152 q 402 1080 532 1109 l 402 907 q 431 302 402 760 l 604 302 q 705 231 684 302 q 315 101 705 138 q 157 173 157 127 l 157 216 q 273 274 157 259 l 273 907 l 287 1052 l 27 1052 q -1 1080 -1 1052 l -1 1124 q 460 1225 -1 1190 z "},"J":{"ha":759,"x_min":-6,"x_max":887,"o":"m 815 1239 q 887 1181 882 1220 q 484 1037 887 1096 l 484 1023 q 570 547 570 779 l 570 533 q 311 173 533 173 l 296 173 q 123 274 178 215 l 123 317 q 153 346 128 346 l 167 346 l 268 317 q 412 533 412 382 q 311 1023 412 644 q 52 1008 138 1008 q -6 1080 -6 1023 q 383 1167 -6 1124 q 815 1239 616 1225 z "},"K":{"ha":973,"x_min":91,"x_max":970,"o":"m 149 1196 l 192 1196 q 278 692 254 1196 q 898 1152 431 787 l 941 1152 q 970 1124 970 1148 l 970 1066 q 739 850 951 1066 q 393 547 559 733 q 638 389 399 521 q 912 130 815 277 l 912 86 q 869 43 912 66 q 393 346 725 43 q 292 404 328 404 l 292 216 q 220 14 283 14 l 177 14 q 91 201 119 14 q 149 1080 119 415 l 134 1152 q 149 1196 149 1180 z "},"L":{"ha":1018,"x_min":63,"x_max":1000,"o":"m 236 1066 q 322 937 322 1048 l 322 836 q 279 446 279 517 l 279 418 q 308 173 279 366 q 899 245 745 245 q 1000 173 991 208 l 1000 101 q 250 -28 485 -28 q 63 201 63 68 q 164 994 135 580 q 236 1066 203 1066 z "},"M":{"ha":1426,"x_min":49,"x_max":1360,"o":"m 928 1052 l 956 1052 q 1274 504 1139 1052 q 1360 216 1360 363 q 1244 130 1330 130 q 970 749 1093 130 q 827 547 882 749 q 654 374 743 374 l 625 374 q 409 648 495 374 l 380 648 q 150 14 263 113 l 92 14 q 49 58 71 14 l 49 101 q 366 1023 158 1023 q 596 648 515 1023 q 783 965 617 650 q 928 1052 863 1052 z "},"N":{"ha":1334,"x_min":68,"x_max":1220,"o":"m 1062 1095 q 1192 648 1192 1095 q 1220 360 1192 568 q 1047 72 1185 72 q 572 404 868 72 l 327 634 q 197 72 281 102 q 183 58 197 58 q 68 404 96 58 q 212 1008 102 1008 l 255 1008 q 356 850 323 1008 q 889 389 553 710 l 918 374 l 918 389 q 903 937 903 786 q 1062 1095 962 1095 z "},"O":{"ha":1343,"x_min":36,"x_max":1246,"o":"m 713 1124 q 1232 764 1097 1124 q 1246 547 1246 620 q 958 14 1246 248 q 597 -72 753 -72 l 569 -72 q 64 332 205 -72 q 36 576 36 446 q 368 1023 36 802 q 713 1124 569 1124 m 713 994 q 468 836 713 974 q 324 533 324 641 l 324 461 q 627 144 376 144 l 670 144 q 1102 591 1035 144 q 785 979 1058 979 q 713 994 785 994 z "},"P":{"ha":1108,"x_min":87,"x_max":1081,"o":"m 606 1196 l 634 1196 q 1081 850 965 1196 l 1081 807 q 505 360 989 360 l 418 360 q 389 332 389 355 q 260 -43 389 -43 q 144 374 144 -43 q 87 864 115 459 l 87 907 q 245 1138 111 1138 q 606 1196 456 1196 m 389 1008 q 418 605 418 859 l 591 605 q 879 821 819 605 q 533 1023 879 997 l 505 1023 q 389 1008 402 1008 z "},"Q":{"ha":1404,"x_min":37,"x_max":1304,"o":"m 858 1066 q 1218 879 1042 1054 q 1304 562 1304 683 l 1304 504 q 1117 58 1304 307 q 1189 -144 1117 43 l 1189 -159 q 1088 -259 1189 -259 q 901 -101 1050 -258 q 627 -159 773 -159 q 65 159 179 -159 q 37 317 37 215 l 37 389 q 512 1037 37 807 q 858 1066 726 1066 m 281 346 l 281 274 q 555 28 281 86 l 627 28 l 800 43 l 800 58 q 699 259 699 208 l 699 302 q 771 360 705 332 q 987 201 823 352 l 1016 201 q 1131 519 1131 378 l 1131 591 q 829 893 1079 893 q 728 907 772 907 q 368 591 503 798 q 281 346 281 436 z "},"R":{"ha":996,"x_min":46,"x_max":939,"o":"m 492 1095 q 925 850 804 1095 l 939 749 q 694 446 939 552 l 694 432 q 867 72 867 199 l 867 58 q 795 0 861 28 q 522 389 682 0 l 507 389 q 349 346 410 346 l 363 317 l 363 130 q 262 14 363 14 q 118 562 118 14 q 104 692 104 562 q 118 864 104 715 q 46 907 46 864 q 378 1080 85 1080 q 492 1095 392 1095 m 262 864 q 334 519 334 591 q 766 764 766 593 l 766 792 q 522 922 686 922 q 262 864 262 893 z "},"S":{"ha":1042,"x_min":54,"x_max":990,"o":"m 730 1225 l 760 1225 q 875 1124 875 1214 q 831 1066 853 1066 l 817 1066 q 702 1095 804 1066 q 284 778 408 1095 q 889 605 889 696 q 990 432 938 605 q 414 58 884 88 l 399 58 q 54 317 144 58 l 54 404 q 140 533 54 479 l 169 533 q 471 288 382 288 l 543 288 q 803 418 675 288 l 803 446 q 284 576 803 504 q 97 778 97 661 l 97 792 q 529 1196 97 1044 q 730 1225 637 1225 z "},"T":{"ha":794,"x_min":-26,"x_max":968,"o":"m 881 1196 q 968 1152 968 1181 l 968 1124 q 477 1023 968 1052 l 492 951 l 492 504 q 391 187 492 284 l 377 187 q 305 692 305 187 l 305 706 q 319 994 305 800 l 17 994 q -26 1037 -4 994 l -26 1052 q 507 1152 -26 1110 q 881 1196 507 1178 z "},"U":{"ha":1165,"x_min":73,"x_max":1067,"o":"m 203 1080 q 260 836 260 1080 q 246 533 260 751 q 433 86 298 86 q 505 58 433 58 l 577 58 q 808 591 766 58 q 937 937 808 937 q 1067 706 1067 873 l 1067 605 q 793 -58 1067 273 q 621 -115 683 -115 l 577 -115 q 73 519 140 -115 q 159 1080 87 784 l 203 1080 z "},"V":{"ha":1008,"x_min":22,"x_max":987,"o":"m 901 1152 q 987 1023 987 1152 q 627 201 987 736 q 497 144 550 144 q 22 1008 273 144 q 36 1052 36 1036 l 79 1052 q 238 749 100 1048 q 439 360 257 749 l 483 332 l 497 332 q 756 1066 684 827 q 901 1152 823 1152 z "},"W":{"ha":1423,"x_min":65,"x_max":1404,"o":"m 1290 1196 q 1404 1080 1404 1189 q 1016 43 1152 43 l 958 43 q 612 490 789 43 l 598 490 q 324 -86 484 -86 q 195 259 195 -86 q 65 1080 123 932 l 65 1109 q 94 1138 70 1138 l 151 1138 q 382 446 248 1138 l 382 389 l 397 389 q 612 749 492 749 l 627 749 q 901 404 781 749 l 915 404 q 1175 1124 1068 1124 q 1290 1196 1211 1196 z "},"X":{"ha":1063,"x_min":13,"x_max":1107,"o":"m 1036 1239 q 1107 1138 1107 1216 q 661 576 1107 1072 l 661 562 q 964 72 964 155 q 892 0 964 34 q 532 418 773 5 l 503 418 q 99 28 121 28 l 56 28 q 13 115 13 43 q 345 634 67 241 l 345 663 q 85 1109 85 1036 l 85 1124 q 114 1152 90 1152 l 157 1152 l 474 807 q 834 1152 500 807 q 1036 1239 925 1239 z "},"Y":{"ha":854,"x_min":-14,"x_max":923,"o":"m 30 1167 l 87 1167 l 462 749 l 505 749 q 836 1124 688 1059 l 908 1124 l 923 1052 q 534 547 781 773 l 519 461 l 519 173 q 476 58 519 66 q 332 302 332 58 q 361 619 361 492 l -14 1080 q 30 1167 -5 1167 z "},"Z":{"ha":1149,"x_min":24,"x_max":1133,"o":"m 903 1196 q 1133 1080 1133 1196 q 701 692 1133 1044 l 298 274 l 298 259 q 917 288 739 288 q 1076 216 1076 266 l 1076 173 q 413 72 1076 72 q 67 86 256 86 q 24 101 39 101 l 24 159 q 398 533 24 274 q 873 1037 871 1010 q 340 1008 623 1008 l 125 1008 q 81 1052 104 1008 l 81 1095 q 903 1196 81 1156 z "},"`":{"ha":408,"x_min":41,"x_max":353,"o":"m 353 858 l 307 858 l 83 995 q 51 1022 62 1008 q 41 1050 41 1036 q 55 1085 41 1072 q 91 1099 68 1099 q 118 1090 104 1099 q 156 1059 132 1082 l 353 858 z "},"a":{"ha":1059,"x_min":67,"x_max":989,"o":"m 557 864 q 672 792 672 845 l 701 792 q 787 850 701 850 l 802 850 q 917 605 917 850 q 989 173 952 605 l 989 86 q 931 28 989 64 l 888 28 q 730 302 826 28 l 715 302 q 370 43 566 43 q 67 360 111 43 q 298 778 138 778 q 557 864 322 824 m 254 360 q 370 231 254 231 q 672 734 518 231 q 269 461 332 734 q 254 360 254 443 z "},"b":{"ha":1070,"x_min":87,"x_max":1008,"o":"m 173 1311 q 303 634 303 1311 q 591 692 475 692 q 1008 389 1008 692 q 648 0 1008 142 q 490 -28 592 -28 l 447 -28 q 288 0 345 -28 q 231 -14 263 -14 q 101 144 125 -14 q 115 389 115 313 l 115 663 q 87 1239 115 975 q 173 1311 111 1311 m 317 446 l 332 302 l 332 245 l 404 231 l 606 231 q 821 418 821 290 l 821 432 q 606 490 821 490 l 418 490 q 317 446 370 490 z "},"c":{"ha":963,"x_min":79,"x_max":958,"o":"m 540 792 q 770 692 770 758 l 770 619 q 727 605 755 619 q 496 619 580 619 q 208 346 208 558 q 381 144 208 181 l 439 144 q 958 216 846 216 l 958 144 q 511 -72 723 -72 q 93 231 189 -72 q 79 346 79 310 q 540 792 79 688 z "},"d":{"ha":871,"x_min":60,"x_max":766,"o":"m 608 1095 l 651 1095 q 766 216 766 1095 q 665 58 766 81 q 579 201 614 58 q 319 130 437 130 q 60 418 81 130 q 420 720 60 567 l 478 720 q 564 692 517 720 l 564 720 q 579 1080 564 804 l 608 1095 m 233 389 q 262 360 238 360 q 564 432 363 360 l 564 576 q 233 418 346 550 l 233 389 z "},"e":{"ha":793,"x_min":69,"x_max":761,"o":"m 501 792 q 646 619 631 792 q 242 317 646 423 l 242 274 l 328 274 q 660 389 368 274 l 703 389 q 761 288 761 366 q 372 43 646 43 q 69 360 107 43 q 401 778 69 581 l 501 792 m 271 446 l 300 446 q 473 576 406 490 l 473 619 q 271 446 385 591 z "},"f":{"ha":739,"x_min":34,"x_max":898,"o":"m 726 1253 q 898 1138 817 1253 l 898 1095 l 855 1095 l 812 1124 l 639 1124 q 408 850 468 1124 l 408 807 q 452 562 408 739 l 595 591 q 696 519 696 573 q 509 374 696 441 l 509 86 q 293 -274 509 -274 l 250 -274 q 92 -201 92 -252 l 92 -144 q 293 -58 92 -106 q 336 317 326 4 q 92 302 167 302 l 77 302 q 34 346 56 302 l 34 389 q 293 519 41 420 q 235 778 235 706 q 553 1225 235 1137 q 726 1253 652 1253 z "},"g":{"ha":831,"x_min":60,"x_max":766,"o":"m 521 734 l 564 734 q 751 274 659 734 q 766 115 766 222 l 766 86 q 463 -446 766 -307 q 362 -461 380 -446 q 60 -245 60 -389 q 117 -173 60 -187 q 334 -245 271 -245 l 376 -245 q 535 28 513 -245 l 535 159 q 319 86 401 86 l 218 86 q 74 231 98 86 q 521 734 74 603 m 203 245 l 203 231 l 218 231 q 521 374 326 231 l 521 404 q 477 576 521 457 l 449 576 q 203 245 203 408 z "},"h":{"ha":836,"x_min":92,"x_max":769,"o":"m 164 1239 l 208 1239 q 265 1080 243 1239 l 265 1008 q 294 706 265 781 q 524 749 359 749 q 769 475 699 749 l 769 418 q 683 144 746 144 l 654 144 q 582 288 611 144 q 596 490 596 410 q 481 605 596 533 q 294 562 294 605 l 294 432 q 222 130 294 287 l 164 130 q 92 274 92 187 q 121 1066 92 383 q 106 1109 106 1094 q 164 1239 127 1239 z "},"i":{"ha":319,"x_min":1,"x_max":231,"o":"m 73 1109 l 159 1109 q 231 994 231 1072 q 102 879 231 901 q 1 951 44 879 l 1 1037 q 73 1109 1 1057 m 144 749 l 188 749 q 217 720 217 745 l 217 259 q 174 216 217 239 l 159 216 q 87 562 87 216 q 144 749 106 749 z "},"j":{"ha":515,"x_min":-89,"x_max":444,"o":"m 214 1052 q 329 922 302 1052 q 214 821 300 821 l 170 821 q 98 893 151 821 l 98 937 q 214 1052 98 1052 m 271 677 q 444 317 444 583 q 142 -159 361 -159 l 55 -159 q -89 -28 -89 -138 q -17 72 -89 52 q 84 0 84 60 l 142 0 q 286 274 224 0 l 286 404 q 214 605 286 477 q 271 677 241 671 z "},"k":{"ha":903,"x_min":96,"x_max":888,"o":"m 154 1210 l 226 1210 q 298 634 298 1059 l 313 634 q 687 836 610 764 l 745 836 q 788 792 765 836 l 788 778 q 486 533 788 673 q 413 461 413 474 q 888 187 888 340 q 788 101 854 101 q 413 259 749 101 q 298 274 368 274 q 197 58 285 58 q 96 519 96 58 l 125 951 q 111 1181 111 1098 l 154 1210 z "},"l":{"ha":441,"x_min":92,"x_max":337,"o":"m 150 1210 l 208 1210 q 337 605 294 1210 l 337 288 q 222 115 337 140 q 92 374 92 140 q 150 1210 92 947 z "},"m":{"ha":1463,"x_min":93,"x_max":1404,"o":"m 482 807 q 727 663 727 755 l 741 663 q 1058 764 914 764 q 1404 332 1324 764 l 1404 317 q 1289 86 1404 187 l 1260 86 q 1173 216 1173 86 q 1015 562 1173 539 q 799 461 923 562 q 813 259 813 281 q 669 14 797 14 q 583 101 626 14 q 597 404 597 288 l 597 432 q 467 648 597 579 q 266 533 374 646 l 266 187 q 165 43 266 43 q 93 115 146 43 l 93 274 q 165 749 132 749 q 208 764 193 764 q 252 720 208 743 q 482 807 332 807 z "},"n":{"ha":930,"x_min":75,"x_max":852,"o":"m 190 850 q 248 749 248 785 q 449 850 345 850 l 564 850 q 852 533 785 850 l 852 346 q 781 187 831 187 l 709 187 q 651 288 651 211 l 651 418 q 665 475 651 450 q 492 677 613 677 q 276 547 427 677 l 291 519 l 291 360 q 176 216 291 216 q 75 533 75 316 l 75 706 q 190 850 75 850 z "},"o":{"ha":926,"x_min":57,"x_max":864,"o":"m 532 836 q 864 446 814 836 q 532 43 864 172 q 446 28 522 43 q 71 374 186 28 l 57 446 q 374 807 57 684 q 532 836 476 836 m 258 418 q 446 231 308 231 l 503 231 q 734 475 706 231 q 547 692 734 665 l 518 692 q 316 547 351 692 q 258 418 258 461 z "},"p":{"ha":870,"x_min":41,"x_max":819,"o":"m 473 706 l 531 706 q 819 360 768 706 q 503 86 819 163 l 315 86 q 127 -332 267 -332 q 41 -201 60 -332 q 157 619 157 597 q 473 706 366 706 m 315 475 l 315 346 q 431 302 324 302 l 503 302 q 632 432 632 302 q 473 533 616 533 q 315 475 315 519 z "},"q":{"ha":872,"x_min":74,"x_max":838,"o":"m 564 764 q 751 389 701 764 q 838 -245 838 58 q 751 -317 838 -317 q 564 144 564 -208 q 391 86 457 86 q 74 346 74 126 l 74 404 q 535 764 74 670 l 564 764 m 261 374 q 362 332 314 332 l 376 332 q 535 374 535 332 q 520 591 535 447 l 506 591 q 261 374 261 529 z "},"r":{"ha":673,"x_min":93,"x_max":712,"o":"m 222 850 q 294 778 261 840 q 467 836 342 807 q 712 706 712 798 q 425 605 712 635 q 294 519 327 562 l 309 490 l 309 259 q 222 115 298 115 q 93 404 93 166 l 93 519 q 222 850 93 850 z "},"s":{"ha":680,"x_min":55,"x_max":631,"o":"m 444 778 q 545 720 522 778 l 545 663 q 458 619 530 619 l 401 648 q 343 519 343 591 q 631 332 631 476 l 631 302 q 242 58 631 129 q 55 173 132 58 l 55 245 q 98 288 55 266 l 127 288 q 242 259 230 259 l 329 259 q 415 302 404 259 q 156 504 156 378 l 156 547 q 444 778 156 683 z "},"t":{"ha":632,"x_min":-19,"x_max":586,"o":"m 355 1152 q 427 1052 427 1133 l 427 907 l 413 879 q 586 821 565 879 l 586 778 q 413 663 572 739 q 586 259 413 404 l 586 201 q 427 115 541 115 q 182 404 252 115 l 182 504 l 197 648 l 82 648 q -19 749 -19 648 q 212 850 -19 805 q 355 1152 276 1152 z "},"u":{"ha":990,"x_min":67,"x_max":917,"o":"m 759 821 q 917 274 845 821 l 917 201 q 859 72 917 92 l 802 72 q 730 216 755 72 l 686 216 q 384 86 504 86 l 341 86 q 67 360 67 140 q 226 792 153 792 l 254 792 l 298 764 l 269 360 q 283 317 283 332 l 298 317 q 672 504 435 317 l 672 692 q 759 821 672 821 z "},"v":{"ha":791,"x_min":54,"x_max":746,"o":"m 112 734 l 140 734 q 342 302 231 646 l 558 663 q 673 720 619 720 q 746 619 746 701 q 414 58 746 355 l 342 43 q 68 461 222 43 q 54 591 54 539 l 54 634 q 112 734 54 711 z "},"w":{"ha":1129,"x_min":77,"x_max":1056,"o":"m 854 836 q 1056 533 1056 794 l 1056 418 q 783 115 998 115 l 753 115 q 523 231 642 115 q 293 130 393 130 l 278 130 q 77 332 77 130 l 77 346 q 264 749 77 581 l 293 749 q 321 720 321 745 l 321 677 q 250 475 252 574 q 293 317 250 317 l 307 317 q 466 547 370 353 l 538 576 q 667 374 644 576 q 725 317 710 317 q 783 374 747 317 q 753 749 783 453 q 854 836 767 804 z "},"x":{"ha":913,"x_min":18,"x_max":867,"o":"m 90 792 q 493 562 150 792 l 507 562 q 795 720 673 720 q 867 648 833 720 q 694 404 859 578 l 694 389 q 853 144 853 216 l 853 115 q 767 72 839 72 q 493 245 669 72 q 161 14 270 79 q 90 101 90 38 q 306 360 197 304 l 306 374 q 18 720 18 653 l 18 734 q 90 792 24 764 z "},"y":{"ha":1061,"x_min":83,"x_max":990,"o":"m 212 663 l 270 619 l 256 475 l 256 332 q 371 201 256 201 q 731 533 547 201 q 789 634 760 634 l 861 634 q 990 201 956 634 q 572 -519 990 -351 l 486 -533 l 457 -533 q 111 -259 235 -533 q 198 -159 111 -195 q 443 -259 422 -259 l 500 -259 q 846 288 795 -259 q 371 14 559 14 l 357 14 q 83 332 126 14 q 212 663 100 663 z "},"z":{"ha":952,"x_min":13,"x_max":949,"o":"m 690 778 q 791 692 791 770 q 459 288 728 540 l 459 274 l 747 274 q 949 144 917 274 l 949 115 q 805 -14 949 5 q 128 130 128 12 l 128 173 q 373 432 128 261 q 517 605 448 530 l 488 605 q 71 547 377 605 q 13 591 13 569 q 272 706 13 706 q 690 778 604 778 z "},"~":{"ha":930,"x_min":41,"x_max":876,"o":"m 271 619 q 588 418 393 619 q 775 562 660 418 l 819 562 q 876 490 876 547 q 617 245 876 317 l 602 245 q 300 446 517 245 l 242 446 q 113 317 228 446 l 55 317 l 41 389 l 41 418 q 271 619 41 549 z "},"¨":{"ha":489,"x_min":41,"x_max":435,"o":"m 50 1000 l 98 1048 q 115 1057 107 1057 q 134 1047 123 1057 l 180 998 q 187 981 187 988 q 179 962 187 972 l 132 911 q 115 900 121 900 q 98 908 106 900 l 47 966 q 41 982 41 975 q 50 1000 41 991 m 298 1000 l 346 1048 q 363 1057 355 1057 q 381 1048 370 1057 l 428 998 q 435 981 435 988 q 427 963 435 972 l 380 911 q 363 900 368 900 q 346 908 353 900 l 294 967 q 288 982 288 975 q 298 1000 288 991 z "},"´":{"ha":408,"x_min":41,"x_max":353,"o":"m 238 1059 q 276 1091 262 1083 q 303 1099 290 1099 q 339 1086 326 1099 q 353 1051 353 1072 q 343 1023 353 1036 q 311 996 332 1009 l 87 858 l 41 858 l 238 1059 z "},"¸":{"ha":372,"x_min":41,"x_max":317,"o":"m 41 -197 q 144 -232 98 -232 q 208 -217 189 -232 q 227 -172 227 -203 q 194 -129 227 -142 q 125 -118 167 -118 q 102 -119 114 -118 l 134 0 l 177 0 l 152 -71 q 194 -67 174 -68 q 285 -95 252 -67 q 317 -172 317 -122 q 278 -253 317 -223 q 169 -283 238 -283 q 41 -262 95 -283 l 41 -197 z "},"ˆ":{"ha":490,"x_min":41,"x_max":435,"o":"m 41 858 l 198 1099 l 278 1099 l 435 858 l 396 858 l 238 1004 l 80 858 l 41 858 z "},"ˇ":{"ha":490,"x_min":41,"x_max":435,"o":"m 41 1099 l 80 1099 l 238 954 l 396 1099 l 435 1099 l 278 858 l 198 858 l 41 1099 z "},"˘":{"ha":491,"x_min":41,"x_max":437,"o":"m 41 1070 l 75 1070 q 126 998 87 1021 q 239 975 165 975 q 352 997 313 975 q 402 1070 391 1020 l 437 1070 q 373 933 423 980 q 239 887 323 887 q 106 934 157 887 q 41 1070 55 981 z "},"˙":{"ha":241,"x_min":41,"x_max":186,"o":"m 50 1000 l 97 1048 q 106 1055 101 1053 q 115 1057 111 1057 q 124 1055 119 1057 q 132 1048 128 1053 l 180 997 q 185 990 184 994 q 186 981 186 986 q 184 970 186 975 q 179 962 183 966 l 131 911 q 120 902 123 903 q 115 900 117 900 q 104 902 109 900 q 97 907 100 903 l 46 966 q 42 973 43 969 q 41 982 41 977 q 43 990 41 986 q 50 1000 45 995 z "},"˚":{"ha":336,"x_min":41,"x_max":281,"o":"m 92 979 q 112 930 92 950 q 160 911 132 911 q 208 930 189 911 q 228 979 228 950 q 208 1026 228 1006 q 160 1046 188 1046 q 112 1026 132 1046 q 92 979 92 1006 m 41 979 q 75 1064 41 1029 q 160 1099 110 1099 q 247 1064 212 1099 q 281 979 281 1029 q 247 893 281 928 q 160 858 212 858 q 75 893 110 858 q 41 979 41 928 z "},"˛":{"ha":345,"x_min":41,"x_max":290,"o":"m 224 0 q 150 -81 176 -42 q 123 -157 123 -120 q 141 -208 123 -189 q 191 -227 159 -227 q 238 -217 218 -227 q 271 -184 258 -206 l 290 -195 q 229 -260 266 -237 q 148 -283 192 -283 q 71 -259 100 -283 q 41 -198 41 -235 q 82 -92 41 -146 q 191 0 123 -37 l 224 0 z "},"˜":{"ha":484,"x_min":41,"x_max":430,"o":"m 430 1063 q 384 959 416 994 q 298 924 351 924 l 295 924 q 218 940 261 924 q 141 956 174 956 q 100 942 115 956 q 77 894 85 928 l 41 894 q 87 1001 54 966 q 174 1037 120 1037 q 251 1021 205 1036 q 327 1005 294 1005 l 330 1005 q 369 1019 354 1005 q 393 1063 384 1032 l 430 1063 z "},"˝":{"ha":494,"x_min":41,"x_max":440,"o":"m 41 858 l 138 1043 q 169 1086 155 1073 q 201 1099 184 1099 q 233 1085 220 1099 q 247 1053 247 1072 q 240 1029 247 1042 q 219 1002 233 1017 l 80 858 l 41 858 m 234 858 l 332 1043 q 362 1086 348 1073 q 394 1099 377 1099 q 427 1085 413 1099 q 440 1053 440 1072 q 433 1029 440 1042 q 412 1002 426 1017 l 273 858 l 234 858 z "},"…":{"ha":1217,"x_min":41,"x_max":1162,"o":"m 107 294 l 119 301 q 200 316 164 316 q 316 248 277 316 q 336 161 336 199 q 276 59 336 94 l 214 23 l 207 23 q 47 110 97 23 q 41 168 41 141 q 107 294 41 256 m 520 294 l 533 301 q 614 316 578 316 q 730 248 690 316 q 749 161 749 199 q 689 59 749 94 l 627 23 l 620 23 q 460 110 511 23 q 454 168 454 141 q 520 294 454 256 m 934 294 l 946 301 q 1027 316 991 316 q 1143 248 1103 316 q 1162 161 1162 199 q 1103 59 1162 94 l 1040 23 l 1034 23 q 873 110 924 23 q 867 168 867 141 q 934 294 867 256 z "}}}
